# xmcd
#
# Track frame offsets: 
#        150
#        76457
#        146681
#        212421
#
# Disc length: 3632 seconds
#
# Revision: 1
# Processed by: cddbd v1.5.1PL0 Copyright (c) Steve Scherf et al.
# Submitted via: ExactAudioCopy v0.95b2
#
DISCID=300e2e04
DTITLE=CS Lewis - Magician's Nephew, The - Kenneth Branagh - Disc4
DYEAR=2001
DGENRE=Speech
TTITLE0=Chapter 12: Strawberry's Adventure
TTITLE1=Chapter 13: An Unexpected Meeting
TTITLE2=Chapter 14: The Planting of the Tree
TTITLE3=Chapter 15: The End of This Story and the Begining of all Othe
TTITLE3=rs
EXTD=
EXTT0=
EXTT1=
EXTT2=
EXTT3=
PLAYORDER=
